<svg version="1.1" xmlns="http://www.w3.org/2000/svg" xmlns:xlink="http://www.w3.org/1999/xlink" x="0px" y="0px"
     viewBox="0 0 64 64" enable-background="new 0 0 64 64" xml:space="preserve">
<g>
	<circle cx="40.5" cy="23.5" r="1.9"/>
    <path d="M32,23.2c-4.9,0-8.8,3.9-8.8,8.8s3.9,8.8,8.8,8.8s8.8-3.9,8.8-8.8S36.9,23.2,32,23.2z M32,36.8c-2.6,0-4.8-2.2-4.8-4.8
		s2.2-4.8,4.8-4.8s4.8,2.2,4.8,4.8S34.6,36.8,32,36.8z"/>
    <path d="M48.1,21.4c-0.5-1.3-1.2-2.4-2.2-3.3s-2-1.7-3.3-2.2c-1.3-0.5-2.6-0.8-4.3-0.8C36.6,15,36.1,15,32,15s-4.6,0-6.3,0.1
		c-1.7,0.1-3,0.3-4.3,0.8c-1.3,0.5-2.4,1.2-3.3,2.2s-1.7,2-2.2,3.3c-0.5,1.3-0.8,2.6-0.8,4.3C15,27.4,15,27.9,15,32s0,4.6,0.1,6.3
		c0.1,1.7,0.3,3,0.8,4.3c0.5,1.3,1.2,2.4,2.2,3.3s2,1.7,3.3,2.2c1.3,0.5,2.6,0.8,4.3,0.8C27.4,49,27.9,49,32,49s4.6,0,6.3-0.1
		c1.7-0.1,3-0.3,4.3-0.8c1.3-0.5,2.4-1.2,3.3-2.2s1.7-2,2.2-3.3c0.5-1.3,0.8-2.6,0.8-4.3C49,36.6,49,36.1,49,32s0-4.6-0.1-6.3
		C48.8,24,48.6,22.7,48.1,21.4z M44.9,38.1c-0.1,1.6-0.3,2.4-0.6,3c-0.3,0.8-0.7,1.4-1.3,2c-0.6,0.6-1.2,1-2,1.3
		c-0.6,0.2-1.4,0.5-3,0.6C36.5,45,36,45,32,45s-4.5,0-6.1-0.1c-1.6-0.1-2.4-0.3-3-0.6c-0.8-0.3-1.4-0.7-2-1.3c-0.6-0.6-1-1.2-1.3-2
		c-0.2-0.6-0.5-1.4-0.6-3C19,36.5,19,36,19,32s0-4.5,0.1-6.1c0.1-1.6,0.3-2.4,0.6-3c0.3-0.8,0.7-1.4,1.3-2c0.6-0.6,1.2-1,2-1.3
		c0.6-0.2,1.4-0.5,3-0.6C27.5,19,28,19,32,19s4.5,0,6.1,0.1c1.6,0.1,2.4,0.3,3,0.6c0.8,0.3,1.4,0.7,2,1.3c0.6,0.6,1,1.2,1.3,2
		c0.2,0.6,0.5,1.4,0.6,3C45,27.5,45,28,45,32S45,36.5,44.9,38.1z"/>
    <path d="M32,0C14.4,0,0,14.4,0,32s14.4,32,32,32s32-14.4,32-32S49.6,0,32,0z M32,60C16.6,60,4,47.4,4,32S16.6,4,32,4s28,12.6,28,28
		S47.4,60,32,60z"/>
</g>
</svg>