<svg width="192" height="59" viewBox="0 0 192 59" fill="none" xmlns="http://www.w3.org/2000/svg">
<path d="M0 6.43477C0 3.37766 2.46531 0.959351 5.80206 0.959351C9.1388 0.959351 11.6041 3.24078 11.6041 6.23401C11.6041 9.45994 9.21105 11.9513 5.80206 11.9513C2.46531 11.9513 0 9.53295 0 6.43477ZM1.23265 18.3986H10.2947V57.5387H1.23265V18.3986Z" fill="black"/>
<path d="M61.0502 35.1077V57.5387H51.9882V36.2804C51.9882 29.3175 48.5792 25.9455 42.7816 25.9455C36.3249 25.9455 31.9767 29.9015 31.9767 37.7451V57.5387H22.9102V18.3986H31.5387V23.4542C34.5143 19.8633 39.2146 17.9788 44.8812 17.9788C54.1826 17.9606 61.0502 23.3173 61.0502 35.1077Z" fill="black"/>
<path d="M105.718 34.5921V57.5387H97.1613V52.766C94.985 56.1379 90.7768 58.0406 84.9702 58.0406C76.1204 58.0406 70.5215 53.131 70.5215 46.3187C70.5215 39.7938 74.8696 34.6652 86.6182 34.6652H96.624V34.0811C96.6511 28.7289 93.4633 25.5988 87.0066 25.5988C82.6584 25.5988 78.1612 27.0634 75.267 29.4818L71.7135 22.8154C75.8449 19.5895 81.8637 17.9788 88.0992 17.9788C99.2609 17.9606 105.718 23.3173 105.718 34.5921ZM96.6511 45.292V40.7292H87.3C81.1368 40.7474 79.4661 43.0927 79.4661 45.9491C79.4661 49.248 82.2204 51.3743 86.8621 51.3743C91.287 51.3743 95.1294 49.3256 96.6511 45.292Z" fill="black"/>
<path d="M153.572 18.3987L136.97 57.5388H127.614L111.012 18.3987H120.435L132.473 47.4184L144.871 18.3987H153.572Z" fill="black"/>
<path d="M158.719 6.43465C158.719 3.35929 161.184 0.959229 164.521 0.959229C167.858 0.959229 170.323 3.24065 170.323 6.23388C170.323 9.45982 167.93 11.9511 164.521 11.9511C161.193 11.9511 158.719 9.53283 158.719 6.43465ZM159.951 18.3802H169.013V57.5386H159.951V18.3802Z" fill="black"/>
<path d="M180.396 6.43465C180.396 3.35929 182.862 0.959229 186.199 0.959229C189.535 0.959229 192.001 3.24065 192.001 6.23388C192.001 9.45982 189.608 11.9511 186.199 11.9511C182.866 11.9511 180.396 9.53283 180.396 6.43465ZM181.629 18.3802H190.696V57.5386H181.629V18.3802Z" fill="black"/>
<path d="M132.471 40.3004L127.951 29.3495L123.432 18.3987L132.462 18.4032L141.493 18.4078L136.982 29.3541L132.471 40.3004Z" fill="#7A3CFF"/>
</svg>
